<svg width="32" height="32" viewBox="0 0 32 32" fill="none" xmlns="http://www.w3.org/2000/svg">
<g clip-path="url(#clip0_12111_176713)">
<path d="M1 5C1 3.11438 1 2.17157 1.58579 1.58579C2.17157 1 3.11438 1 5 1H27C28.8856 1 29.8284 1 30.4142 1.58579C31 2.17157 31 3.11438 31 5V27C31 28.8856 31 29.8284 30.4142 30.4142C29.8284 31 28.8856 31 27 31H5C3.11438 31 2.17157 31 1.58579 30.4142C1 29.8284 1 28.8856 1 27V5Z" fill="black" fill-opacity="0.9"/>
<g clip-path="url(#clip1_12111_176713)">
<rect width="30" height="30" transform="translate(1 1)" fill="#0466C8"/>
<rect width="30" height="10" transform="translate(1 1)" fill="#A8CFFF"/>
<rect width="30" height="10" transform="translate(1 11)" fill="#4997F5"/>
<rect width="30" height="10" transform="translate(1 21)" fill="#2A7ADB"/>
</g>
</g>
<path d="M1.23223 1.23223C0.830955 1.63351 0.65836 2.13876 0.577682 2.73883C0.499975 3.31681 0.499986 4.05169 0.5 4.96342L0.5 5V27L0.5 27.0366C0.499986 27.9483 0.499975 28.6832 0.577682 29.2612C0.65836 29.8612 0.830955 30.3665 1.23223 30.7678C1.63351 31.169 2.13876 31.3416 2.73883 31.4223C3.31681 31.5 4.05168 31.5 4.9634 31.5H5H27H27.0366C27.9483 31.5 28.6832 31.5 29.2612 31.4223C29.8612 31.3416 30.3665 31.169 30.7678 30.7678C31.169 30.3665 31.3416 29.8612 31.4223 29.2612C31.5 28.6832 31.5 27.9483 31.5 27.0366V27V5V4.9634C31.5 4.05168 31.5 3.31681 31.4223 2.73883C31.3416 2.13876 31.169 1.63351 30.7678 1.23223C30.3665 0.830955 29.8612 0.65836 29.2612 0.577682C28.6832 0.499975 27.9483 0.499986 27.0366 0.5L27 0.5H5L4.96342 0.5C4.05169 0.499986 3.31681 0.499975 2.73883 0.577682C2.13876 0.658359 1.63351 0.830955 1.23223 1.23223Z" stroke="black" stroke-opacity="0.9" stroke-linejoin="round"/>
<defs>
<clipPath id="clip0_12111_176713">
<path d="M1 5C1 3.11438 1 2.17157 1.58579 1.58579C2.17157 1 3.11438 1 5 1H27C28.8856 1 29.8284 1 30.4142 1.58579C31 2.17157 31 3.11438 31 5V27C31 28.8856 31 29.8284 30.4142 30.4142C29.8284 31 28.8856 31 27 31H5C3.11438 31 2.17157 31 1.58579 30.4142C1 29.8284 1 28.8856 1 27V5Z" fill="white"/>
</clipPath>
<clipPath id="clip1_12111_176713">
<rect width="30" height="30" fill="white" transform="translate(1 1)"/>
</clipPath>
</defs>
</svg>
